<?xml version="1.0" encoding="UTF-8" standalone="no"?>
<!-- Created with Inkscape (http://www.inkscape.org/) -->

<svg
   xmlns:dc="http://purl.org/dc/elements/1.1/"
   xmlns:cc="http://creativecommons.org/ns#"
   xmlns:rdf="http://www.w3.org/1999/02/22-rdf-syntax-ns#"
   xmlns:svg="http://www.w3.org/2000/svg"
   xmlns="http://www.w3.org/2000/svg"
   xmlns:sodipodi="http://sodipodi.sourceforge.net/DTD/sodipodi-0.dtd"
   xmlns:inkscape="http://www.inkscape.org/namespaces/inkscape"
   width="48px"
   height="48px"
   id="svg2985"
   version="1.1"
   inkscape:version="0.48.4 r9939"
   sodipodi:docname="icon-48.svg"
   inkscape:export-filename="C:\Users\Joel\Documents\Opera Extensions\[Opera 15]\Site Preferences\img\icon-48.png"
   inkscape:export-xdpi="90"
   inkscape:export-ydpi="90">
  <sodipodi:namedview
     id="base"
     pagecolor="#ffffff"
     bordercolor="#666666"
     borderopacity="1.0"
     inkscape:pageopacity="0.0"
     inkscape:pageshadow="2"
     inkscape:zoom="11.313708"
     inkscape:cx="13.399066"
     inkscape:cy="13.125803"
     inkscape:current-layer="layer1"
     showgrid="true"
     inkscape:grid-bbox="true"
     inkscape:document-units="px"
     inkscape:window-width="1600"
     inkscape:window-height="847"
     inkscape:window-x="1912"
     inkscape:window-y="292"
     inkscape:window-maximized="1"
     inkscape:snap-nodes="false">
    <inkscape:grid
       type="xygrid"
       id="grid4694" />
  </sodipodi:namedview>
  <defs
     id="defs2987"><linearGradient
   id="linearGradient3758">
  <stop
     style="stop-color:#414141;stop-opacity:0.45882353;"
     offset="0"
     id="stop3760" />
  <stop
     style="stop-color:#414141;stop-opacity:0.53725493;"
     offset="1"
     id="stop3762" />
</linearGradient>
<linearGradient
   id="linearGradient3824">
  <stop
     style="stop-color:#707070;stop-opacity:1;"
     offset="0"
     id="stop3826" />
  <stop
     style="stop-color:#808080;stop-opacity:1;"
     offset="1"
     id="stop3828" />
</linearGradient>

	
	
	
	
	
	
	
	
	
	
	
	
	
	
	
	
	
	
	
	
	
	
	
	
	
	
	
	
	
	
	
	
	
	
	
	
	
	
	
	
	
	
</defs>
  <metadata
     id="metadata2990">
    <rdf:RDF>
      <cc:Work
         rdf:about="">
        <dc:format>image/svg+xml</dc:format>
        <dc:type
           rdf:resource="http://purl.org/dc/dcmitype/StillImage" />
        <dc:title></dc:title>
      </cc:Work>
    </rdf:RDF>
  </metadata>
  <g
     id="layer1"
     inkscape:label="Layer 1"
     inkscape:groupmode="layer">
    <path
       id="path3911"
       d="M 44.959691,25.279135 C 42.390358,24.587212 41.813974,18.555283 43.923429,17.33951 44.61491,16.939311 45.151399,16.371225 45.506112,15.715868 44.959764,13.714087 43.091534,10.829019 42.037091,9.5455687 41.265475,9.508856 40.476152,9.6845507 39.757493,10.099006 37.456393,11.426561 32.705732,7.8649239 33.416497,5.2183646 33.638784,4.3914593 33.522841,3.3881913 33.34295,2.8018797 32.036516,2.1241231 28.942072,1.2109551 26.643459,0.98332474 26.147693,1.3436316 25.579592,2.215349 25.357761,3.0477839 24.604944,5.8463635 18.66936,6.2473048 17.398528,4.0397425 16.974306,3.3020458 16.192291,2.6146769 15.651533,2.3883466 14.163949,2.8379758 10.930436,4.7097169 9.6222414,5.7908155 9.7117232,6.557669 9.7283135,7.4484039 10.166793,8.2091547 11.436702,10.417175 7.9865232,15.320734 5.2666744,14.588572 4.3718722,14.348062 3.4325625,14.41532 2.6661205,14.730198 c -0.6326268,1.398343 -1.591676,5.086973 -1.68340678,6.57525 0.18007448,0.406142 1.25534608,1.120069 2.11562618,1.351327 3.7021033,0.99718 3.7256682,6.432287 1.0412894,7.979719 -0.7582769,0.437457 -1.408068,1.045057 -1.6790987,1.81201 0.4492989,1.443661 2.257386,4.618511 3.4277816,5.973037 0.7660361,0.09062 1.656211,-0.105248 2.4167938,-0.544545 2.397374,-1.383213 7.186086,1.879866 6.373191,4.905098 -0.211196,0.787287 -0.09554,1.615913 0.03855,2.428431 1.802208,0.768568 5.062693,1.850554 6.865712,1.807201 0.586187,-0.540848 0.948367,-1.294808 1.154942,-2.064592 0.711687,-2.647939 6.565757,-3.487177 7.946437,-1.087813 0.385614,0.670845 0.925962,1.307745 1.556367,1.669179 1.893299,-0.53954 5.222565,-2.399665 6.35175,-3.571259 0.04506,-0.856574 -0.276517,-1.572511 -0.676377,-2.268712 -1.492369,-2.590705 2.004399,-7.120973 4.875223,-6.347647 0.786174,0.210909 1.642612,0.140803 2.364257,-0.03865 0.632341,-1.578514 1.681223,-4.398454 1.863131,-6.743721 -0.630044,-0.722238 -1.228241,-1.061521 -2.058601,-1.285377 z m -8.751431,1.74088 c -1.759351,6.549369 -8.489869,10.428981 -15.032876,8.667722 -6.542088,-1.762181 -10.418467,-8.499665 -8.658657,-15.048574 1.759807,-6.548908 8.490326,-10.428982 15.032414,-8.667262 6.542547,1.761719 10.419388,8.498283 8.659119,15.048114 z"
       clip-rule="evenodd"
       inkscape:connector-curvature="0"
       style="fill:#cc0f16;fill-opacity:1;fill-rule:evenodd;stroke:#b1161c;stroke-width:0.95918375;stroke-opacity:1" />
    <g
       id="g3332"
       transform="matrix(0.54764513,0,0,0.54764513,39.924426,-1.192769)">
      <path
         inkscape:connector-curvature="0"
         id="path3299"
         d="m -60.906251,31.780883 c -1.242,0 -2.25,1.008 -2.25,2.25 l 0,5.094117 -3.84375,0 c -1.242,0 -2.25,1.008 -2.25,2.25 l 0,44.375 c 0,1.242 1.008,2.25 2.25,2.25 l 67.96875,0 c 1.242,0 2.25,-1.008 2.25,-2.25 l -3.65199997,-5.936765 5.62499997,0 c 1.242,0 2.25,-1.008 2.25,-2.25 l 0,-43.532352 c 0,-1.242 -1.008,-2.25 -2.25,-2.25 z"
         style="fill:#ffffff;stroke:none"
         sodipodi:nodetypes="sscsssssscsssss"
         inkscape:export-xdpi="90"
         inkscape:export-ydpi="90" />
      <g
         id="g3283"
         transform="translate(-40.932293,-93.71458)"
         style="stroke:none">
        <path
           id="path3285"
           d="m 38.814182,181.71458 -64.88189,0 c -1.242,0 -2.25,-1.008 -2.25,-2.25 l 0,-44.80097 c 0,-1.242 1.008,-2.25 2.25,-2.25 l 64.88189,0 c 1.242,0 2.25,1.008 2.25,2.25 l 0,44.80097 c 0,1.242 -1.008,2.25 -2.25,2.25 z m -63.479225,-3.65267 62.083765,0 0,-41.9971 -62.083765,0 z"
           inkscape:connector-curvature="0"
           style="stroke:none"
           sodipodi:nodetypes="sssssssssccccc"
           inkscape:export-filename="C:\Users\Joel\Documents\Opera Extensions\[Opera 15]\Site Preferences\img\path3299.png"
           inkscape:export-xdpi="90"
           inkscape:export-ydpi="90" />
        <path
           id="path3287"
           d="m 46.124292,174.42232 -5.883813,0 c -1.242,0 -2.25,-1.008 -2.25,-2.25 0,-1.242 1.008,-1.41546 2.25,-1.41546 l 4.491235,0 0,-41.99628 -63.919422,0 0,4.75517 c 0,1.242 -0.153547,2.25 -1.395547,2.25 -1.242,0 -2.25,-1.008 -2.25,-2.25 l 0,-6.18281 c 0,-1.242 1.008,-2.25 2.25,-2.25 l 66.707547,0 c 1.242,0 2.25,1.008 2.25,2.25 l 0,44.83938 c 0,1.242 -1.008,2.25 -2.25,2.25 z"
           inkscape:connector-curvature="0"
           style="stroke:none"
           sodipodi:nodetypes="sssscccsssssssss"
           inkscape:export-filename="C:\Users\Joel\Documents\Opera Extensions\[Opera 15]\Site Preferences\img\path3299.png"
           inkscape:export-xdpi="90"
           inkscape:export-ydpi="90" />
        <path
           id="path3289"
           d="m 38.233581,150.67258 -64.30117,0 c -1.241711,0 -2.249476,-1.00777 -2.249476,-2.24948 0,-1.24171 1.007765,-1.408 2.249476,-1.408 l 64.30117,0 c 1.241711,0 2.249476,0.16629 2.249476,1.408 0,1.24171 -1.007765,2.24948 -2.249476,2.24948 z"
           inkscape:connector-curvature="0"
           style="stroke:none"
           sodipodi:nodetypes="sssssss"
           inkscape:export-filename="C:\Users\Joel\Documents\Opera Extensions\[Opera 15]\Site Preferences\img\path3299.png"
           inkscape:export-xdpi="90"
           inkscape:export-ydpi="90" />
        <path
           id="path3291"
           d="m -19.152489,143.76058 c -0.601,0 -1.172,-0.24 -1.591,-0.659 -0.419,-0.422 -0.659,-1.023 -0.659,-1.591 0,-0.601 0.24,-1.201 0.659,-1.62 0.812,-0.812 2.341,-0.841 3.182,0 0.419,0.419 0.659,1.02 0.659,1.62 0,0.568 -0.24,1.14 -0.659,1.559 -0.422,0.45 -0.99,0.691 -1.591,0.691 z"
           inkscape:connector-curvature="0"
           style="stroke:none"
           sodipodi:nodetypes="scsssscs" />
        <path
           id="path3293"
           d="m -11.846239,143.73058 c -0.598,0 -1.169,-0.24 -1.588,-0.63 -0.422,-0.422 -0.662,-1.022 -0.662,-1.591 0,-0.601 0.24,-1.201 0.662,-1.62 0.809,-0.812 2.338,-0.841 3.179,0.029 0.4219998,0.39 0.6589998,0.99 0.6589998,1.591 0,0.568 -0.237,1.169 -0.6589998,1.591 -0.419,0.39 -0.99,0.63 -1.591,0.63 z"
           inkscape:connector-curvature="0"
           style="stroke:none"
           sodipodi:nodetypes="scsccscs" />
        <path
           id="path3295"
           d="m -4.5650518,143.76058 c -0.598,0 -1.169,-0.24 -1.588,-0.659 -0.451,-0.422 -0.691,-1.022 -0.691,-1.62 0,-0.571 0.24,-1.14 0.659,-1.562 0.902,-0.87 2.341,-0.87 3.182,-0.029 0.448,0.419 0.688,1.02 0.688,1.591 0,0.598 -0.27,1.198 -0.688,1.62 -0.422,0.418 -0.99,0.659 -1.562,0.659 z"
           inkscape:connector-curvature="0"
           style="stroke:none"
           sodipodi:nodetypes="scsccscs" />
      </g>
    </g>
  </g>
</svg>
